<?xml version="1.0" standalone="no"?>
<!DOCTYPE svg PUBLIC "-//W3C//DTD SVG 20010904//EN"
 "http://www.w3.org/TR/2001/REC-SVG-20010904/DTD/svg10.dtd">
<svg version="1.0" xmlns="http://www.w3.org/2000/svg"
 width="320.000000pt" height="260.000000pt" viewBox="0 0 320.000000 260.000000"
 preserveAspectRatio="xMidYMid meet">

<g transform="translate(0.000000,260.000000) scale(0.100000,-0.100000)"
fill="#000000" stroke="none">
<path d="M1293 2071 c-46 -16 -116 -47 -156 -70 -82 -47 -227 -165 -227 -185
0 -12 109 -96 125 -96 4 0 36 25 73 55 85 70 205 130 315 157 l87 21 0 36 c0
32 -5 39 -41 59 -22 13 -43 30 -46 38 -8 21 -38 17 -130 -15z"/>
<path d="M1774 2079 c-10 -12 -38 -32 -61 -46 -32 -18 -43 -31 -43 -49 0 -28
11 -33 115 -58 39 -9 103 -32 143 -52 73 -35 222 -146 222 -164 0 -19 28 -9
86 31 32 23 61 43 62 44 9 8 -46 68 -111 121 -86 71 -201 137 -281 163 -102
32 -111 33 -132 10z"/>
<path d="M1320 1707 c0 -25 -44 -57 -79 -57 -15 0 -19 4 -14 16 10 26 -28 2
-71 -46 -148 -164 -203 -395 -140 -593 21 -68 32 -56 -130 -141 l-113 -60 -36
37 c-88 87 -218 67 -275 -43 -41 -80 -11 -174 71 -221 31 -17 50 -20 93 -17
92 8 143 61 153 159 l6 62 334 139 334 140 51 -26 c60 -31 135 -34 195 -10
l40 16 140 -77 c78 -42 141 -81 141 -87 0 -40 -129 -142 -233 -185 -74 -31
-212 -42 -298 -24 -107 22 -239 101 -239 141 0 28 -39 60 -72 60 -35 0 -78
-40 -78 -72 0 -36 27 -67 66 -74 19 -3 65 -26 102 -51 97 -63 203 -95 322 -96
181 -1 307 51 439 180 l84 83 97 -52 97 -52 -5 -62 c-6 -75 15 -125 67 -159
103 -67 230 -20 261 96 20 74 -18 161 -83 192 -68 33 -130 22 -208 -34 -13
-10 -59 17 -275 163 -243 165 -259 178 -257 204 12 150 -21 217 -128 262 l-46
20 -7 123 c-8 148 -13 169 -36 169 -21 0 -26 -28 -36 -193 l-7 -109 -38 -23
c-71 -45 -101 -103 -103 -195 l-1 -45 -145 -77 c-81 -43 -149 -73 -154 -68
-15 15 -36 124 -36 190 0 182 108 371 262 459 43 25 53 27 79 17 24 -8 35 -8
56 4 54 30 40 40 -56 40 -88 0 -91 -1 -91 -23z"/>
<path d="M793 1656 c-97 -169 -137 -370 -113 -567 9 -69 18 -106 29 -116 9 -7
30 -25 48 -39 l32 -25 46 27 c28 16 44 32 41 40 -22 57 -30 116 -30 224 -1
145 14 210 75 334 22 44 36 82 32 86 -12 10 -106 76 -119 83 -6 3 -24 -18 -41
-47z"/>
<path d="M2311 1646 c-35 -25 -65 -47 -68 -50 -3 -2 7 -24 21 -48 13 -24 36
-83 50 -132 53 -181 44 -344 -28 -516 -4 -9 2 -20 14 -27 16 -11 25 -9 54 7
18 12 53 24 77 28 l44 7 19 75 c27 110 27 307 -2 420 -12 47 -29 105 -39 130
-20 48 -71 150 -76 150 -2 0 -31 -20 -66 -44z"/>
<path d="M2000 1652 c0 -6 5 -14 10 -17 6 -3 10 -10 10 -16 0 -12 -47 -12 -55
1 -3 6 -14 10 -23 10 -13 -1 -10 -6 11 -22 45 -33 124 -153 149 -226 17 -51
23 -89 23 -162 0 -85 -2 -97 -22 -117 -49 -49 -20 -126 46 -126 48 0 74 29 67
78 -3 22 -7 90 -10 150 -4 116 -20 185 -64 270 -39 79 -142 206 -142 177z"/>
<path d="M899 778 c-43 -18 -47 -22 -53 -65 -5 -42 -3 -48 39 -103 60 -78 191
-182 290 -230 93 -45 226 -86 314 -96 l61 -7 0 55 c0 109 -2 113 -81 126 -91
16 -215 64 -285 111 -65 43 -176 151 -206 199 -23 37 -19 36 -79 10z"/>
<path d="M2129 674 c-110 -112 -229 -178 -377 -210 l-83 -18 3 -80 3 -81 40 3
c134 10 312 83 441 180 107 81 106 79 89 127 -8 22 -14 59 -15 82 0 30 -5 45
-18 52 -15 8 -30 -2 -83 -55z"/>
</g>
</svg>
